<?xml version="1.0" encoding="utf-8"?>
<!-- Generator: Adobe Illustrator 27.5.0, SVG Export Plug-In . SVG Version: 6.00 Build 0)  -->
<svg version="1.1" xmlns="http://www.w3.org/2000/svg" xmlns:xlink="http://www.w3.org/1999/xlink" x="0px" y="0px"
	 viewBox="0 0 500 500" style="enable-background:new 0 0 500 500;" xml:space="preserve">
<g id="BACKGROUND">
</g>
<g id="OBJECTS">
	<g>
		<path style="fill:#D9F0FF;" d="M455.22,305.43c-5.5,39.68-30.99,76.19-65.38,97.36c-39.75,24.48-89.19,23.98-135.72,20.31
			c-14.26-1.13-28.6-3.46-41.68-9.25c-13.07-5.79-24.86-15.35-31.2-28.16c-6.35-12.82-6.54-29.04,1.4-40.93
			c2.92-4.36,7.02-8.71,6.51-13.93c-0.63-6.33-8.12-9.98-14.44-9.18c-6.31,0.79-11.77,4.59-17.36,7.62
			c-14.69,7.95-31.96,11.04-48.49,8.66c-11.21-1.61-22.82-6.461-32.06-13.75c-4.39-3.44-8.24-7.43-11.26-11.88
			c-9.96-14.68-15.62-32.19-16.44-49.91c-0.39-8.24,0.28-16.52,2.03-24.58c5.53-25.4,21.84-48.27,44.06-61.76
			c20.72-12.59,45.69-19.04,69.41-24.1c65.82-14.05,135.42-9.93,199.13,11.77c25.14,8.57,49.06,25.11,65.05,46.32
			c6.86,9.1,12.78,19.62,17.35,30.76c6.1,14.83,9.81,30.76,10.18,45.92C456.46,293,456.09,299.26,455.22,305.43z"/>
		<path style="fill:#FFFFFF;" d="M455.22,305.43c-7.37-0.24-14.74-0.75-22.07-1.53c-5.08-0.54-10.49-1.36-14.26-4.81
			c-3.76-3.45-4.61-10.45-0.37-13.3c4.88-3.27,13.06,0.62,16.58-4.08c2.4-3.2,0.11-8.16-3.5-9.88c-3.61-1.72-7.85-1.14-11.77-0.39
			c-3.93,0.76-8.04,1.64-11.86,0.44c-6.96-2.21-10.14-11.21-7.61-18.06c2.54-6.84,9.35-11.39,16.45-13.14
			c7.09-1.74,14.52-1.13,21.8-0.47c2.49,0.23,5.01,0.46,7.52,0.59c6.1,14.83,9.81,30.76,10.18,45.92
			C456.46,293,456.09,299.26,455.22,305.43z"/>
		<path style="fill:#FFFFFF;" d="M236.65,281.73c-3.26,6.09-9.76,9.92-16.47,11.55c-6.72,1.63-13.73,1.35-20.64,1.06
			c-23.29-0.98-46.58-1.96-69.88-2.93c-4.49-0.19-9.26-0.32-13.16,1.92c-3.9,2.25-6.25,7.8-3.55,11.4c2.43,3.24,7.2,3.2,11.25,3.05
			c4.05-0.15,8.97,0.42,10.69,4.09c1.47,3.15-0.48,7.06-3.41,8.92c-2.94,1.86-6.57,2.19-10.04,2.43
			c-14.85,1.021-29.75,1.34-44.64,0.961c-4.39-3.44-8.24-7.43-11.26-11.88c-9.96-14.68-15.62-32.19-16.44-49.91
			c56.16-0.96,112.3-1.92,168.46-2.88c5.58-0.1,11.65-0.04,16.06,3.4C239.07,267.15,239.92,275.64,236.65,281.73z"/>
	</g>
	<g>
		<polygon style="fill:#FE5615;" points="282.479,222.263 92.021,245.669 70.297,63.058 259.974,41.325 		"/>
		<path style="fill:#FFFFFF;" d="M112.847,210.41c-12.162-9.459-27.225,12.947,2.851,20.225
			C142.591,215.327,121.921,197.957,112.847,210.41z"/>
		
			<rect x="227.54" y="59.741" transform="matrix(0.6163 -0.7875 0.7875 0.6163 35.6533 215.4665)" style="fill:#FFADB5;" width="22.809" height="22.808"/>
		
			<ellipse transform="matrix(0.9732 -0.2298 0.2298 0.9732 -25.0338 37.461)" style="fill:#A9D4E4;" cx="148.352" cy="126.233" rx="13.617" ry="13.617"/>
		<polygon style="fill:#FFD990;" points="199.944,149.659 189.172,178.168 219.248,173.242 		"/>
		<g>
			
				<line style="fill:none;stroke:#FFFFFF;stroke-width:0.8;stroke-linecap:round;stroke-linejoin:round;stroke-miterlimit:10;" x1="113.565" y1="60.675" x2="143.834" y2="238.384"/>
			
				<line style="fill:none;stroke:#FFFFFF;stroke-width:0.8;stroke-linecap:round;stroke-linejoin:round;stroke-miterlimit:10;" x1="165.666" y1="53.742" x2="187.571" y2="233.721"/>
			
				<line style="fill:none;stroke:#FFFFFF;stroke-width:0.8;stroke-linecap:round;stroke-linejoin:round;stroke-miterlimit:10;" x1="214.105" y1="48.28" x2="231.527" y2="227.074"/>
			
				<line style="fill:none;stroke:#FFFFFF;stroke-width:0.8;stroke-linecap:round;stroke-linejoin:round;stroke-miterlimit:10;" x1="264.882" y1="89.471" x2="77.943" y2="113.497"/>
			
				<line style="fill:none;stroke:#FFFFFF;stroke-width:0.8;stroke-linecap:round;stroke-linejoin:round;stroke-miterlimit:10;" x1="82.863" y1="158.496" x2="269.297" y2="130.781"/>
			
				<line style="fill:none;stroke:#FFFFFF;stroke-width:0.8;stroke-linecap:round;stroke-linejoin:round;stroke-miterlimit:10;" x1="274.412" y1="176.568" x2="87.297" y2="200.327"/>
		</g>
	</g>
	<ellipse style="fill:#FFD990;" cx="298.093" cy="451.163" rx="138.383" ry="9.409"/>
	<g>
		<g>
			<polygon style="fill:#A9D4E4;" points="162.945,390.112 122.405,372.612 105.421,411.854 145.712,429.539 			"/>
			<polygon style="fill:#FFFFFF;" points="141.557,386.655 116.094,403.401 143.328,417.08 			"/>
		</g>
		<g>
			<polygon style="fill:#A9D4E4;" points="82.633,277.596 43.467,297.772 62.969,335.719 102.121,315.852 			"/>
			<circle style="fill:#FFFFFF;" cx="72.044" cy="306.56" r="13.617"/>
		</g>
	</g>
	<g>
		<polygon style="fill:#FFD990;" points="359.168,87.358 354.343,95.714 363.993,95.714 		"/>
		<polygon style="fill:#FFADB5;" points="157.139,344.371 152.314,352.728 161.964,352.728 		"/>
		<polygon style="fill:#FB7D4D;" points="198.559,263.664 203.383,255.308 193.734,255.308 		"/>
		<polygon style="fill:#FFADB5;" points="427.92,132.466 430.319,137.327 435.684,138.107 431.802,141.891 432.718,147.234 
			427.92,144.711 423.121,147.234 424.038,141.891 420.156,138.107 425.521,137.327 		"/>
		<polygon style="fill:#FFADB5;" points="420.156,310.438 422.555,315.299 427.92,316.079 424.038,319.863 424.954,325.206 
			420.156,322.683 415.358,325.206 416.274,319.863 412.392,316.079 417.757,315.299 		"/>
		<polygon style="fill:#FFD990;" points="36.557,223.616 38.956,228.477 44.32,229.257 40.438,233.041 41.355,238.384 
			36.557,235.861 31.758,238.384 32.675,233.041 28.793,229.257 34.158,228.477 		"/>
		<circle style="fill:#FFADB5;" cx="303.888" cy="71.937" r="1.5"/>
		<circle style="fill:#FB7D4D;" cx="142.406" cy="350.049" r="1.5"/>
		<circle style="fill:#FFADB5;" cx="49.129" cy="140.87" r="1.5"/>
		<circle style="fill:#FFADB5;" cx="58.427" cy="171.637" r="1.5"/>
		<circle style="fill:#FB7D4D;" cx="326.089" cy="62.96" r="1.5"/>
		<circle style="fill:#FFADB5;" cx="446.234" cy="185.107" r="1.5"/>
		<circle style="fill:#FB7D4D;" cx="435.684" cy="381.807" r="1.5"/>
		<circle style="fill:#FFADB5;" cx="211.904" cy="367.39" r="1.5"/>
		<circle style="fill:#FFADB5;" cx="218.222" cy="312.4" r="1.5"/>
		<circle style="fill:#FFADB5;" cx="107.559" cy="355.206" r="1.5"/>
		<circle style="fill:#FFD990;" cx="437.52" cy="252.529" r="1.5"/>
		<circle style="fill:#FFADB5;" cx="409.728" cy="401.076" r="1.5"/>
		<circle style="fill:#FB7D4D;" cx="457.956" cy="169.734" r="1.5"/>
		<circle style="fill:#FFADB5;" cx="143.906" cy="271.691" r="1.5"/>
		<circle style="fill:#FFD990;" cx="172.735" cy="281.076" r="1.5"/>
	</g>
	<g>
		<g>
			<path style="fill:#FE5615;" d="M343.843,121.633c-1.397-1.019-3.642-1.539-5.149-0.69c0.277-0.925-0.026-1.999-0.746-2.642
				c-0.72-0.644-1.95-0.953-2.838-0.574c0.147-1.144-0.379-2.349-1.318-3.019c-0.939-0.67-2.566-0.873-3.6-0.362
				c-0.122-4.273-2.192-8.482-5.593-11.071c-3.401-2.589-8.085-3.457-12.145-2.119c-4.06,1.337-7.047,5.011-7.923,9.195
				c-1.526-0.021-3.037,0.8-3.849,2.092c-0.811,1.293-0.579,2.921,0.104,4.286c-1.391-0.064-2.786,0.73-3.441,1.96
				c-0.655,1.229-0.367,2.663,0.462,3.782c-1.043,0.043-2.045,0.652-2.563,1.559c-0.518,0.906-0.482,1.884,0.011,2.804
				c-1.407,0.19-2.715,1.023-3.481,2.219c-0.766,1.196-0.978,2.731-0.563,4.09l54.403-6.929
				C345.962,124.518,345.241,122.651,343.843,121.633z"/>
			<path style="fill:none;stroke:#FE5615;stroke-width:0.8;stroke-linecap:round;stroke-linejoin:round;stroke-miterlimit:10;" d="
				M329.943,114.649c0.94-0.906,2.397-1.232,3.633-0.812c1.236,0.42,2.194,1.566,2.387,2.856c1.108-0.358,2.502,0.089,3.193,1.027"
				/>
			<path style="fill:none;stroke:#FE5615;stroke-width:0.8;stroke-linecap:round;stroke-linejoin:round;stroke-miterlimit:10;" d="
				M301.113,116.777c-1.333-0.474-2.92-0.132-3.939,0.849c-1.019,0.981-1.422,2.554-1,3.904c-1.304,0.325-2.552,1.67-2.824,2.987"/>
		</g>
		<g>
			<path style="fill:#FFFFFF;" d="M371.855,130.158c-6.698-3.956-14.606-6.023-22.385-6.108c-8.894-0.097-17.869-0.025-26.763-0.122
				c-1.123,1.594-2.962,2.663-4.903,2.851c-1.941,0.188-3.906-0.622-5.314-1.972c-10.516,3.174-20.885,6.833-31.065,10.96
				c-6.061,2.458-11.097,7.293-14.681,12.765c-5.64,8.609-10.378,17.851-15.434,26.816c13.882,3.108,28.954,5.96,42.836,9.068
				l71.864-13.004c11.43-6.165,22.745-13.045,34.175-19.21C391.525,144.009,382.121,136.222,371.855,130.158z"/>
			<path style="fill:none;stroke:#000200;stroke-width:0.8;stroke-linecap:round;stroke-linejoin:round;stroke-miterlimit:10;" d="
				M303.314,129.047c2.175,3.502,5.759,6.102,9.763,7.083c4.005,0.981,8.384,0.332,11.931-1.769
				c3.548-2.101,6.222-5.628,7.288-9.611"/>
			<path style="fill:none;stroke:#000200;stroke-width:0.8;stroke-linecap:round;stroke-linejoin:round;stroke-miterlimit:10;" d="
				M371.625,162.241c8.03-4.526,16.06-9.052,24.091-13.577"/>
			<path style="fill:none;stroke:#000200;stroke-width:0.8;stroke-linecap:round;stroke-linejoin:round;stroke-miterlimit:10;" d="
				M254.497,170.781c9.772,2.362,19.544,4.723,29.316,7.085"/>
		</g>
		<g>
			<path style="fill:#FFB399;" d="M247.524,369.995c-2.119,12.649-4.238,25.298-6.357,37.948c-0.818,4.884-2.532,9.978-4.649,14.455
				l46.924,4.793c3.851-19.167,7.27-38.749,11.122-57.916C278.99,368.026,263.046,368.227,247.524,369.995z"/>
			<g>
				<path style="fill:#000200;" d="M236.959,418.345c-2.518,8.49-7.732,16.158-14.7,21.622c-2.091,1.64-4.715,2.98-6.828,4.592
					c-2.109,1.609-4.095,3.796-4.21,6.446l68.737,0.376c2.183-10.162,3.756-20.713,5.938-30.876
					C269.67,419.627,253.184,419.223,236.959,418.345z"/>
				<path style="fill:none;stroke:#FFFFFF;stroke-width:0.8;stroke-linecap:round;stroke-linejoin:round;stroke-miterlimit:10;" d="
					M220.96,441.562c3.864,0.498,7.387,3.118,8.977,6.675c16.529-1.355,33.766-2.747,50.296-4.102"/>
				<path style="fill:none;stroke:#FFFFFF;stroke-width:0.8;stroke-linecap:round;stroke-linejoin:round;stroke-miterlimit:10;" d="
					M230.647,433.588c3.294,0,6.588,0,9.882,0"/>
				<path style="fill:none;stroke:#FFFFFF;stroke-width:0.8;stroke-linecap:round;stroke-linejoin:round;stroke-miterlimit:10;" d="
					M232.763,429.56c3.116,0.201,6.232,0.401,9.348,0.602"/>
				<path style="fill:none;stroke:#FFFFFF;stroke-width:0.8;stroke-linecap:round;stroke-linejoin:round;stroke-miterlimit:10;" d="
					M234.706,425.471c3.118,0,6.235,0,9.353,0"/>
			</g>
		</g>
		<g>
			<path style="fill:#FFB399;" d="M319.107,370.535c0,0-3.243,37.346-3.723,55.955l43.734,0.603
				c3.229-19.879,6.268-39.824,9.497-59.703C351.36,368.335,319.107,370.535,319.107,370.535z"/>
			<g>
				<path style="fill:#000200;" d="M371.523,447.76c-0.719-0.944-1.669-1.682-2.608-2.409c-1.761-1.363-4.191-2.419-5.384-4.299
					c-3.539-5.576-4.427-12.86-2.573-19.199c-15.66-0.215-31.351-0.421-47.01-0.636c-0.294,9.872-0.588,19.744-0.882,29.616
					l59.493,0.238C372.716,449.895,372.242,448.704,371.523,447.76z"/>
				<path style="fill:none;stroke:#FFFFFF;stroke-width:0.8;stroke-linecap:round;stroke-linejoin:round;stroke-miterlimit:10;" d="
					M314.107,445.326c10.825,1.283,21.695,2.712,32.52,3.995c1.978-2.845,4.854-5.055,8.113-6.234
					c3.258-1.179,6.883-1.32,10.223-0.4"/>
				<path style="fill:none;stroke:#FFFFFF;stroke-width:0.8;stroke-linecap:round;stroke-linejoin:round;stroke-miterlimit:10;" d="
					M345.178,435.934c4.47-0.125,8.941-0.251,13.411-0.376"/>
				<path style="fill:none;stroke:#FFFFFF;stroke-width:0.8;stroke-linecap:round;stroke-linejoin:round;stroke-miterlimit:10;" d="
					M343.586,431.201c4.647,0.103,9.295,0.207,13.942,0.31"/>
				<path style="fill:none;stroke:#FFFFFF;stroke-width:0.8;stroke-linecap:round;stroke-linejoin:round;stroke-miterlimit:10;" d="
					M343.41,426.646c4.177,0.052,8.353,0.105,12.53,0.157"/>
			</g>
		</g>
		<g>
			<path style="fill:#74C3A4;" d="M393.955,374.723c-3.644-53.783-7.646-108.291-11.084-162.087
				c-1.005-15.726-6.304-31.857-11.882-46.595c-5.328-14.078-9.961-28.473-13.607-43.078c-4.808,0.085-9.533,0.71-14.34,0.795
				c0.206,7.642-0.9,15.737-5.601,21.764c-2.285,2.929-5.329,5.227-8.677,6.836c-7.82,3.758-17.397,3.625-25.111-0.347
				s-13.384-11.692-14.867-20.24c-4.715,1.892-9.615,3.887-14.331,5.779c7.878,19.787,10.872,40.96,7.774,62.031
				c-21.357,59.417-38.253,117.786-56.856,176.61l39.895,1.269l-1.516,8.075l76.651,0.756l1.532-11.797L393.955,374.723z"/>
			<path style="fill:none;stroke:#000200;stroke-width:0.8;stroke-linecap:round;stroke-linejoin:round;stroke-miterlimit:10;" d="
				M277.178,137.139c5.194,14.033,8.365,28.813,9.385,43.741"/>
			<path style="fill:none;stroke:#000200;stroke-width:0.8;stroke-linecap:round;stroke-linejoin:round;stroke-miterlimit:10;" d="
				M355.078,123.502c2.684,13.43,6.619,26.61,11.737,39.313"/>
			<path style="fill:none;stroke:#000200;stroke-width:0.8;stroke-linecap:round;stroke-linejoin:round;stroke-miterlimit:10;" d="
				M288.409,215.608c22.902-0.566,45.803-1.133,68.705-1.699l3.25,98.491"/>
			
				<line style="fill:none;stroke:#000200;stroke-width:0.8;stroke-linecap:round;stroke-linejoin:round;stroke-miterlimit:10;" x1="265.268" y1="377.462" x2="297.232" y2="216.006"/>
			
				<line style="fill:none;stroke:#000200;stroke-width:0.8;stroke-linecap:round;stroke-linejoin:round;stroke-miterlimit:10;" x1="341.936" y1="374.496" x2="349.863" y2="214.088"/>
			
				<line style="fill:none;stroke:#000200;stroke-width:0.8;stroke-linecap:round;stroke-linejoin:round;stroke-miterlimit:10;" x1="309.664" y1="215.608" x2="301.343" y2="290.886"/>
			<path style="fill:none;stroke:#000200;stroke-width:0.8;stroke-linecap:round;stroke-linejoin:round;stroke-miterlimit:10;" d="
				M302.478,208.878c17.29-1.174,34.581-2.349,51.871-3.523"/>
			<path style="fill:none;stroke:#000200;stroke-width:0.8;stroke-linecap:round;stroke-linejoin:round;stroke-miterlimit:10;" d="
				M285.648,133.488c1.986,10.455,9.718,19.63,19.686,23.357s21.823,1.879,30.182-4.708c8.359-6.587,12.93-17.68,11.637-28.243"/>
		</g>
		<g>
			<path style="fill:#FFB399;" d="M404.67,169.44c-2.632-5.324-5.521-10.58-8.379-15.787l-20.854,10.766
				c3.136,13.818,2.926,28.299-0.962,41.924c-0.858-0.111-1.716-0.222-2.575-0.333c-6.372-0.822-12.772-1.646-19.195-1.506
				c-0.95,0.021-1.929,0.069-2.789,0.474c-0.86,0.405-1.578,1.253-1.545,2.203c0.821,0.401,1.721,0.803,2.542,1.204
				c0.818,0.399,1.206,1.711,1.757,2.436c1.831,2.41,2.402,5.503,3.693,8.241c6.358,1.912,12.635,3.983,18.993,5.895
				c9.65-2.612,18.154-8.753,24-16.864c3.567-4.95,6.061-10.576,8.529-16.155C411.004,184.89,408.086,176.349,404.67,169.44z"/>
			<path style="fill:none;stroke:#000200;stroke-width:0.8;stroke-linecap:round;stroke-linejoin:round;stroke-miterlimit:10;" d="
				M376.084,208.097c0.965-1.117,1.93-2.233,2.895-3.35c0.081-5.452,0.245-11.237,0.326-16.689c0.034-2.264,0.612-4.669,2.72-5.497
				c3.177,5.317,6.216,10.8,9.393,16.117c3.139,5.253,3.163,12.569-0.198,17.683"/>
			<path style="fill:none;stroke:#000200;stroke-width:0.8;stroke-linecap:round;stroke-linejoin:round;stroke-miterlimit:10;" d="
				M351.346,208.663c7.289,3.098,14.577,6.195,21.865,9.293"/>
			<path style="fill:none;stroke:#000200;stroke-width:0.8;stroke-linecap:round;stroke-linejoin:round;stroke-miterlimit:10;" d="
				M352.556,210.84c1.351,1.632,4.054,4.897,4.054,4.897s10.614,4.772,15.923,7.257"/>
		</g>
		<g>
			<polygon style="fill:#FFFFFF;" points="382.37,163.17 336.139,156.445 329.584,201.208 375.612,208.191 			"/>
			<path style="fill:#FE5615;" d="M357.334,174.107c-9.702-13.979-32.963,4.672-3.662,22.257
				C387.063,189.093,371.002,163.973,357.334,174.107z"/>
		</g>
		<g>
			<path style="fill:#FFB399;" d="M328.592,125.672c-1.723-0.118-3.16-0.327-4.882-0.446c-0.372-1.38-0.623-2.793-0.995-4.173
				c1.507-0.083,2.921-1.11,3.464-2.518c0.543-1.408,0.187-3.119-0.873-4.193c-1.06-1.074-2.776-1.38-4.191-0.854
				c-0.021,0.34,0.031,0.675,0.01,1.015c-1.386,0.41-2.997-0.103-3.89-1.238c-0.283-0.359-0.466-0.867-0.459-1.324
				c-0.671,0.457-1.562,0.574-2.328,0.306c-0.767-0.268-1.557-0.842-1.797-1.618c-0.724,0.74-1.782,1.141-2.815,1.068
				c-1.033-0.073-2.023-0.62-2.636-1.454c-0.29,1.512-0.624,3.145-0.914,4.657c-0.327,1.706-0.174,3.7,0.732,5.183
				c0.906,1.482,2.464,2.55,4.174,2.86c0.156,1.148,0.39,2.422,0.547,3.569c-1.614,0.626-3.17,1.155-4.784,1.781
				c2.219,3.867,6.949,6.039,11.367,5.434C322.739,133.121,326.75,129.733,328.592,125.672z"/>
			<circle style="fill:#000200;" cx="308.48" cy="114.298" r="0.8"/>
			<circle style="fill:#000200;" cx="315.697" cy="115.344" r="0.8"/>
			<path style="fill:none;stroke:#000200;stroke-width:0.8;stroke-linecap:round;stroke-linejoin:round;stroke-miterlimit:10;" d="
				M311.698,114.233c-0.18,0.685-0.361,1.37-0.541,2.056c0.333,0.019,0.51,0.21,0.844,0.229"/>
			<path style="fill:none;stroke:#FE5615;stroke-width:0.8;stroke-linecap:round;stroke-linejoin:round;stroke-miterlimit:10;" d="
				M312.697,110.116c-0.172,1-0.948,1.87-1.921,2.156"/>
			<path style="fill:none;stroke:#000200;stroke-width:0.8;stroke-linecap:round;stroke-linejoin:round;stroke-miterlimit:10;" d="
				M322.353,116.177c0.569-0.176,1.137-0.353,1.706-0.529"/>
			<path style="fill:none;stroke:#000200;stroke-width:0.8;stroke-linecap:round;stroke-linejoin:round;stroke-miterlimit:10;" d="
				M321.941,121.176c0.392,0.02,0.784,0.039,1.176,0.059"/>
			<path style="fill:none;stroke:#000200;stroke-width:0.8;stroke-linecap:round;stroke-linejoin:round;stroke-miterlimit:10;" d="
				M313.293,117.765c0.187,0.268,0.525,0.422,0.85,0.387c0.325-0.035,0.622-0.258,0.748-0.56"/>
			<path style="fill:none;stroke:#000200;stroke-width:0.8;stroke-linecap:round;stroke-linejoin:round;stroke-miterlimit:10;" d="
				M310.893,123.142c2.275,0.632,4.847,0.334,6.872-0.796"/>
		</g>
		<g>
			<path style="fill:#FFB399;" d="M341.071,170.849c0.506-0.823,0.872-2.129,0.147-2.766c-1.132,0.094-2.264,0.189-3.396,0.283
				c0.674-0.263,1.229-0.819,1.49-1.494c0.261-0.675,0.091-1.701-0.231-2.349c-7.147,0.345-16.932,0.774-21.708,1.097
				c-6.062,3.469-11.658,7.749-16.593,12.691c-4.89,0.846-10.013,2.297-14.903,3.143l-31.065-5.83
				c-2.673,6.053-4.168,12.912-6.1,19.24c-1.528,5.006-0.306,10.644,2.716,14.917c3.023,4.273,7.697,7.226,12.719,8.697
				c5.023,1.471,10.75,1.941,15.824,0.658c9.248-2.339,17.668-5.583,27.319-9.534c5.81-1.429,11.306-5.866,14.673-10.812
				c2.847-1.281,5.693-2.561,8.54-3.842c1.11-0.499,2.244-1.015,3.117-1.862c0.873-0.848,1.759-2.243,1.467-3.424
				c-3.403,0.243-7.094,0.088-10.497,0.331c4.135-1.811,8.27-3.622,12.406-5.432c1.028-0.45,2.089-0.923,2.842-1.755
				c0.753-0.832,1.255-2.298,0.687-3.266c-4.452,0.146-8.903,0.251-13.355,0.396c3.907-2.408,7.815-4.815,11.722-7.223
				C339.714,172.207,340.566,171.671,341.071,170.849z"/>
			<path style="fill:none;stroke:#000200;stroke-width:0.8;stroke-linecap:round;stroke-linejoin:round;stroke-miterlimit:10;" d="
				M270.304,183.326c5.097-0.557,10.194-1.114,15.291-1.671"/>
			<path style="fill:none;stroke:#000200;stroke-width:0.8;stroke-linecap:round;stroke-linejoin:round;stroke-miterlimit:10;" d="
				M301.343,177.809c-0.864,0.626-1.728,1.251-2.592,1.877"/>
			<path style="fill:none;stroke:#000200;stroke-width:0.8;stroke-linecap:round;stroke-linejoin:round;stroke-miterlimit:10;" d="
				M318.076,200.219c1.451-0.589,2.902-1.177,4.352-1.766"/>
			<path style="fill:none;stroke:#000200;stroke-width:0.8;stroke-linecap:round;stroke-linejoin:round;stroke-miterlimit:10;" d="
				M320.19,191.164c1.803-0.513,3.606-1.025,5.409-1.538"/>
			<path style="fill:none;stroke:#000200;stroke-width:0.8;stroke-linecap:round;stroke-linejoin:round;stroke-miterlimit:10;" d="
				M320.523,180.957c2.393-0.345,4.786-0.691,7.18-1.036"/>
			<path style="fill:none;stroke:#000200;stroke-width:0.8;stroke-linecap:round;stroke-linejoin:round;stroke-miterlimit:10;" d="
				M318.776,173.278c6.542-1.791,13.083-3.582,19.625-5.374"/>
		</g>
	</g>
</g>
</svg>
