<svg xmlns="http://www.w3.org/2000/svg" version="1.1" xmlns:xlink="http://www.w3.org/1999/xlink" xmlns:svgjs="http://svgjs.dev/svgjs" width="2000" height="590" viewBox="0 0 2000 590"><g transform="matrix(1,0,0,1,-1.2121212121212466,0.4760693390118149)"><svg viewBox="0 0 396 117" data-background-color="#ffffff" preserveAspectRatio="xMidYMid meet" height="590" width="2000" xmlns="http://www.w3.org/2000/svg" xmlns:xlink="http://www.w3.org/1999/xlink"><g id="tight-bounds" transform="matrix(1,0,0,1,0.2400000000000091,-0.09440697061759806)"><svg viewBox="0 0 395.52 117.1888139412352" height="117.1888139412352" width="395.52"><g><svg viewBox="0 0 678.3882977078797 200.99999999999997" height="117.1888139412352" width="395.52"><g><rect width="18.0362064" height="200.99999999999997" x="238.15720000000002" y="0" fill="#111111" opacity="1" stroke-width="0" stroke="transparent" fill-opacity="1" class="rect-qz-0" data-fill-palette-color="primary" rx="1%" id="qz-0" data-palette-color="#111111"></rect></g><g transform="matrix(1,0,0,1,303.4086064,0.4999999999999858)"><svg viewBox="0 0 374.97969130787976 200" height="200" width="374.97969130787976"><g id="textblocktransform"><svg viewBox="0 0 374.97969130787976 200" height="200" width="374.97969130787976" id="textblock"><g><svg viewBox="0 0 374.97969130787976 200" height="200" width="374.97969130787976"><g transform="matrix(1,0,0,1,0,0)"><svg width="374.97969130787976" viewBox="3.86 -29.52 56.34 30.06" height="200" data-palette-color="#111111"><path d="M23.02-29.52Q24.02-29.52 24.44-29.15 24.85-28.78 24.85-27.93L24.85-27.93 24.85-22.31Q24.85-21.46 24.44-21.09 24.02-20.73 23.02-20.73L23.02-20.73Q22.09-20.73 21.75-21.36L21.75-21.36Q20.58-23.58 18.46-24.74 16.33-25.9 13.62-25.9L13.62-25.9Q10.94-25.9 9.46-24.66 7.98-23.41 7.98-21.31L7.98-21.31Q7.98-20.31 8.5-19.63 9.01-18.95 9.96-18.46L9.96-18.46Q10.82-18.02 11.96-17.74 13.11-17.46 15.04-17.09L15.04-17.09Q17.14-16.67 18.37-16.39 19.6-16.11 20.8-15.63L20.8-15.63Q23.24-14.62 24.62-12.83 26-11.04 26-7.98L26-7.98Q26-5.44 24.8-3.53 23.61-1.61 21.28-0.54 18.95 0.54 15.67 0.54L15.67 0.54Q13.23 0.54 11.15-0.35 9.06-1.25 7.52-2.95L7.52-2.95 7.52-1.05Q7.52-0.2 7.1 0.17 6.69 0.54 5.69 0.54L5.69 0.54Q4.69 0.54 4.27 0.17 3.86-0.2 3.86-1.05L3.86-1.05 3.86-8.37Q3.86-9.23 4.27-9.59 4.69-9.96 5.69-9.96L5.69-9.96Q6.74-9.96 7.1-8.94L7.1-8.94Q8.11-6.1 10.29-4.59 12.48-3.08 15.67-3.08L15.67-3.08Q18.8-3.08 20.47-4.42 22.14-5.76 22.14-7.98L22.14-7.98Q22.14-9.52 21.37-10.49 20.61-11.45 19.14-12.08L19.14-12.08Q18.21-12.5 17.11-12.76 16.02-13.01 14.11-13.4L14.11-13.4Q12.11-13.79 10.75-14.14 9.4-14.48 8.25-14.99L8.25-14.99Q6.3-15.87 5.21-17.37 4.13-18.87 4.13-21.31L4.13-21.31Q4.13-23.83 5.33-25.68 6.54-27.54 8.7-28.53 10.86-29.52 13.62-29.52L13.62-29.52Q15.77-29.52 17.77-28.69 19.78-27.86 21.19-26.44L21.19-26.44 21.19-27.93Q21.19-28.78 21.61-29.15 22.02-29.52 23.02-29.52L23.02-29.52ZM58.66-28.98Q59.49-28.98 59.85-28.6 60.2-28.22 60.2-27.32L60.2-27.32Q60.2-26.42 59.85-26.04 59.49-25.66 58.66-25.66L58.66-25.66 57.35-25.66 53.98-1.05Q53.85-0.17 53.35 0.18 52.85 0.54 51.88 0.54L51.88 0.54Q49.88 0.54 49.39-1.05L49.39-1.05 44.87-15.23 40.31-1.05Q39.79 0.54 37.77 0.54L37.77 0.54Q36.81 0.54 36.31 0.17 35.81-0.2 35.72-1.05L35.72-1.05 32.47-25.66 31.27-25.66Q30.44-25.66 30.09-26.04 29.73-26.42 29.73-27.32L29.73-27.32Q29.73-28.22 30.09-28.6 30.44-28.98 31.27-28.98L31.27-28.98 39.67-28.98Q40.5-28.98 40.85-28.6 41.21-28.22 41.21-27.32L41.21-27.32Q41.21-26.42 40.85-26.04 40.5-25.66 39.67-25.66L39.67-25.66 36.11-25.66 38.55-6.1 43.14-20.46Q43.48-21.61 44.89-21.61L44.89-21.61Q45.68-21.61 46.1-21.36 46.53-21.12 46.68-20.63L46.68-20.63 51.24-6.1 53.78-25.66 50.75-25.66Q49.92-25.66 49.57-26.04 49.22-26.42 49.22-27.32L49.22-27.32Q49.22-28.22 49.57-28.6 49.92-28.98 50.75-28.98L50.75-28.98 58.66-28.98Z" opacity="1" transform="matrix(1,0,0,1,0,0)" fill="#111111" class="wordmark-text-0" data-fill-palette-color="primary" id="text-0"></path></svg></g></svg></g></svg></g></svg></g><g transform="matrix(1,0,0,1,0,0.4999999999999858)"><svg viewBox="0 0 190.942 200" height="200" width="190.942"><g><svg version="1.0" xmlns="http://www.w3.org/2000/svg" xmlns:xlink="http://www.w3.org/1999/xlink" x="0" y="0" viewBox="0 0 95.471 100" enable-background="new 0 0 95.471 100" xml:space="preserve" width="190.942" height="200" class="icon-icon-0" data-fill-palette-color="accent" id="icon-0"><path d="M47.735 0c-0.083 2.825-1.738 13.412-19.799 30.934C10.554 47.797 2.439 49.824 0 50c2.439 0.178 10.554 2.204 27.936 19.066C45.997 86.589 47.652 97.177 47.735 100c0.083-2.823 1.739-13.411 19.798-30.934C84.917 52.204 93.031 50.178 95.471 50c-2.439-0.176-10.554-2.203-27.938-19.066C49.475 13.412 47.819 2.825 47.735 0z" fill="#111111" data-fill-palette-color="accent"></path></svg></g></svg></g></svg></g><defs></defs></svg><rect width="395.52" height="117.1888139412352" fill="none" stroke="none" visibility="hidden"></rect></g></svg></g></svg>