<svg xmlns="http://www.w3.org/2000/svg" version="1.1" xmlns:xlink="http://www.w3.org/1999/xlink" xmlns:svgjs="http://svgjs.dev/svgjs" width="2000" height="3271" viewBox="0 0 2000 3271"><g transform="matrix(1,0,0,1,3.0047345440004847,1.324291497975537)"><svg viewBox="0 0 151 247" data-background-color="#ffffff" preserveAspectRatio="xMidYMid meet" height="3271" width="2000" xmlns="http://www.w3.org/2000/svg" xmlns:xlink="http://www.w3.org/1999/xlink"><g id="tight-bounds" transform="matrix(1,0,0,1,-0.22685745807203261,-0.09999999999999432)"><svg viewBox="0 0 151.46771130104463 247.2" height="247.2" width="151.46771130104463"><g><svg viewBox="0 0 151.46771130104463 247.2" height="247.2" width="151.46771130104463"><g><svg viewBox="0 0 151.46771130104463 247.2" height="247.2" width="151.46771130104463"><g id="textblocktransform"><svg viewBox="0 0 151.46771130104463 247.2" height="247.2" width="151.46771130104463" id="textblock"><g><svg viewBox="0 0 151.46771130104463 247.2" height="247.2" width="151.46771130104463"><g transform="matrix(1,0,0,1,0,0)"><svg width="151.46771130104463" viewBox="-1.2166663333200003 -36.45 22.332030874965 36.45" height="247.2" data-palette-color="#6b7280"><path d="M15-35.35L15-35.35Q16-35.35 17.3-34.98 18.6-34.6 19.4-33.75L19.4-33.75Q19.95-33.25 19.25-33.45L19.25-33.45Q18.55-33.55 17.82-33.77 17.1-34 16.25-34L16.25-34Q13.15-34.05 11.75-32.23 10.35-30.4 10.15-27.6L10.15-27.6Q10-25.65 10.23-23.73 10.45-21.8 10.75-19.9 11.05-18 11.28-16.1 11.5-14.2 11.3-12.25L11.3-12.25Q11.25-11.7 11.18-11.6 11.1-11.5 11.03-11.65 10.95-11.8 10.88-12.08 10.8-12.35 10.75-12.55L10.75-12.55Q10.45-14.55 10-16.57 9.55-18.6 9.15-20.65 8.75-22.7 8.53-24.75 8.3-26.8 8.5-28.9L8.5-28.9Q8.65-30.25 9.15-31.43 9.65-32.6 10.48-33.48 11.3-34.35 12.45-34.85 13.6-35.35 15-35.35ZM6.1-28.75L6.1-28.75Q6.25-30.1 6.8-31.48 7.35-32.85 8.28-33.98 9.2-35.1 10.53-35.77 11.85-36.45 13.5-36.45L13.5-36.45Q13.55-36.45 13.78-36.43 14-36.4 14.18-36.35 14.35-36.3 14.33-36.25 14.3-36.2 13.95-36.15L13.95-36.15Q12.6-35.9 11.45-35.25 10.3-34.6 9.45-33.65 8.6-32.7 8.08-31.53 7.55-30.35 7.45-29.1L7.45-29.1Q7.25-26.7 7.65-24.28 8.05-21.85 8.58-19.45 9.1-17.05 9.47-14.63 9.85-12.2 9.65-9.8L9.65-9.8Q9.55-8.85 9.2-7.8 8.85-6.75 8.28-5.85 7.7-4.95 6.85-4.33 6-3.7 4.95-3.55L4.95-3.55Q4.15-3.45 4.28-3.63 4.4-3.8 4.85-4.05L4.85-4.05Q6.65-5.05 7.33-6.4 8-7.75 8.2-9.75L8.2-9.75Q8.4-12.05 8.03-14.45 7.65-16.85 7.15-19.25 6.65-21.65 6.28-24.03 5.9-26.4 6.1-28.75ZM4.75-1.05L4.75-1.05Q6.85-1.05 8.3-1.83 9.75-2.6 10.7-3.88 11.65-5.15 12.15-6.83 12.65-8.5 12.8-10.3L12.8-10.3Q13-12.55 12.7-14.8 12.4-17.05 12.03-19.28 11.65-21.5 11.35-23.75 11.05-26 11.25-28.3L11.25-28.3Q11.45-30.6 12.68-31.95 13.9-33.3 16.35-33.3L16.35-33.3Q17.2-33.3 18.53-33 19.85-32.7 20.7-32.15L20.7-32.15Q21.6-31.55 20.55-31.8L20.55-31.8Q19.95-31.95 19-32.15 18.05-32.35 17.55-32.35L17.55-32.35Q15.6-32.35 14.2-31.5 12.8-30.65 12.6-28.5L12.6-28.5Q12.35-26.2 12.7-23.93 13.05-21.65 13.5-19.35 13.95-17.05 14.28-14.75 14.6-12.45 14.4-10.15L14.4-10.15Q14.25-8.25 13.65-6.45 13.05-4.65 11.95-3.2 10.85-1.75 9.22-0.88 7.6 0 5.4 0L5.4 0Q4.8 0 3.85-0.2 2.9-0.4 1.95-0.73 1-1.05 0.18-1.53-0.65-2-1.05-2.55L-1.05-2.55Q-1.5-3.05-0.75-2.8L-0.75-2.8Q0.1-2.35 1.33-1.7 2.55-1.05 4.75-1.05ZM4.45-2.8L4.45-2.8Q5.7-2.8 6.75-3.2 7.8-3.6 8.9-4.25L8.9-4.25 8.9-4.1Q8.9-3.65 8.43-3.23 7.95-2.8 7.25-2.45 6.55-2.1 5.68-1.9 4.8-1.7 3.9-1.7L3.9-1.7Q3.55-1.7 2.95-1.83 2.35-1.95 1.73-2.18 1.1-2.4 0.55-2.7 0-3-0.2-3.4L-0.2-3.4Q-0.75-4-0.55-4.08-0.35-4.15 0-3.9L0-3.9Q0.8-3.65 1.83-3.23 2.85-2.8 4.45-2.8Z" opacity="1" transform="matrix(1,0,0,1,0,0)" fill="#ffffff" class="wordmark-text-0" data-fill-palette-color="primary" id="text-0"></path></svg></g></svg></g></svg></g></svg></g></svg></g><defs></defs></svg><rect width="151.46771130104463" height="247.2" fill="none" stroke="none" visibility="hidden"></rect></g></svg></g></svg>